<svg width="30" height="30" viewBox="0 0 30 30" fill="none" xmlns="http://www.w3.org/2000/svg">
<circle cx="15" cy="15" r="15" fill="#001F66"/>
<g clip-path="url(#clip0)">
<path d="M22.9018 16.6147L20.0744 21.9657C19.9361 22.2318 19.544 22.5132 19.2412 22.5132L7.90279 22.5153C7.66325 22.5153 7.43359 22.4203 7.26434 22.2509C7.09509 22.0815 7 21.8521 7 21.6125L7.00184 12.8081C7.00184 12.3102 7.40547 11.9062 7.90343 11.9057L8.73243 11.9049V12.674H8.17781C8.06926 12.674 7.965 12.7171 7.88819 12.7939C7.81145 12.8707 7.7683 12.9749 7.7683 13.0836L7.76911 21.337C7.76911 21.5634 7.95256 21.7465 8.17871 21.7465H8.74671L11.4263 16.3259C11.5777 16.0231 11.8637 15.7784 12.1661 15.7784H18.7284L18.7307 13.597C19.1592 13.6367 19.4974 13.9922 19.4974 14.4308V15.7784H22.5071C22.8625 15.7821 23.1618 16.1335 22.9018 16.6147ZM9.25523 19.0179C9.23075 16.3197 9.25523 8.22502 9.25523 8.22502C9.25523 7.81661 9.58737 7.48471 9.99537 7.48471H15.9227C16.0177 7.48471 16.1083 7.52444 16.1724 7.59432L18.0887 9.67635C18.1462 9.73904 18.1784 9.82112 18.1784 9.90616V15.2998H17.5567V10.3719C17.5567 10.2866 17.4874 10.2174 17.4021 10.2174H15.9354C15.7637 10.2174 15.6241 10.078 15.6241 9.9067V8.26099C15.6241 8.17571 15.5549 8.10648 15.4695 8.10648H9.99575C9.93035 8.10648 9.87713 8.15967 9.87713 8.22502V18.3392L9.4014 19.3017C9.40143 19.3015 9.25768 19.291 9.25523 19.0179ZM16.2464 9.59594H17.1698L16.2464 8.59224V9.59594ZM16.5832 10.8506H10.8545C10.6435 10.8506 10.4721 11.0221 10.4721 11.2331C10.4721 11.444 10.6436 11.6156 10.8545 11.6156H16.5834C16.7944 11.6156 16.9663 11.4439 16.9663 11.2331C16.9659 11.0222 16.7941 10.8506 16.5832 10.8506ZM16.9659 13.4607C16.9659 13.2498 16.7943 13.0785 16.5832 13.0785H10.8545C10.6435 13.0785 10.4721 13.2502 10.4721 13.4607C10.4721 13.6716 10.6436 13.843 10.8545 13.843H16.5834C16.7941 13.843 16.9659 13.6716 16.9659 13.4607ZM10.4719 15.7034C10.4719 15.9143 10.6435 16.0857 10.8544 16.0857H10.9917C11.2335 15.4118 11.8328 15.3212 11.8328 15.3212H10.8544C10.6438 15.3212 10.4719 15.4925 10.4719 15.7034Z" fill="white"/>
</g>
<defs>
<clipPath id="clip0">
<rect width="16" height="16" fill="white" transform="translate(7 7)"/>
</clipPath>
</defs>
</svg>
