<svg width="22" height="23" viewBox="0 0 22 23" fill="none" xmlns="http://www.w3.org/2000/svg">
<g clip-path="url(#clip0)">
<path d="M21.1407 10.3282H2.94096L5.95582 7.32795C6.29222 6.99313 6.29351 6.44902 5.9587 6.11262C5.62389 5.77617 5.07973 5.77493 4.74333 6.1097L0.252921 10.5784C0.25262 10.5787 0.252405 10.579 0.252147 10.5793C-0.0833957 10.9141 -0.0844699 11.4599 0.252061 11.7959C0.252362 11.7961 0.252577 11.7964 0.252835 11.7967L4.74324 16.2654C5.0796 16.6002 5.62376 16.599 5.95861 16.2625C6.29342 15.9261 6.29214 15.382 5.95573 15.0472L2.94096 12.0469H21.1407C21.6153 12.0469 22.0001 11.6622 22.0001 11.1876C22.0001 10.7129 21.6153 10.3282 21.1407 10.3282Z" fill="#5B5EF4"/>
</g>
<defs>
<clipPath id="clip0">
<rect width="22" height="22" fill="white" transform="translate(0 0.1875)"/>
</clipPath>
</defs>
</svg>
