<svg width="16" height="16" viewBox="0 0 16 16" fill="none" xmlns="http://www.w3.org/2000/svg">
<g clip-path="url(#clip0)">
<path d="M9.41502 7.99983L15.7068 1.70803C16.0977 1.31746 16.0977 0.683746 15.7068 0.293177C15.3159 -0.0977257 14.6829 -0.0977257 14.292 0.293177L8.00017 6.58498L1.70803 0.293177C1.31713 -0.0977257 0.68408 -0.0977257 0.293177 0.293177C-0.0977257 0.683746 -0.0977257 1.31746 0.293177 1.70803L6.58531 7.99983L0.293177 14.2916C-0.0977257 14.6822 -0.0977257 15.3159 0.293177 15.7065C0.488629 15.9016 0.744783 15.9993 1.0006 15.9993C1.25643 15.9993 1.51258 15.9016 1.70803 15.7062L8.00017 9.41435L14.292 15.7062C14.4874 15.9016 14.7436 15.9993 14.9994 15.9993C15.2552 15.9993 15.5114 15.9016 15.7068 15.7062C16.0977 15.3156 16.0977 14.6819 15.7068 14.2913L9.41502 7.99983Z" fill="#27282E"/>
</g>
<defs>
<clipPath id="clip0">
<rect width="16" height="16" fill="white"/>
</clipPath>
</defs>
</svg>
